# xmcd CD database file
#
# Track frame offsets:
#	150
#	32482
#	58582
#	78290
#	106007
#	135087
#	148782
#	168337
#	187365
#	203457
#	218212
#	240205
#	260712
#	283402
#
# Disc length: 4191 seconds
#
# Revision: 0
# Processed by: cddbd v1.4PL0 Copyright (c) Steve Scherf et al.
# Submitted via: Feurio! 1.65 - http://www.feurio.com
#
DISCID=c3105d0e
DTITLE=The Heart Of Gold Band - Double Dose
DYEAR=1989
DGENRE=Country
TTITLE0=Stir It Up
TTITLE1=Watchin' The River Flow
TTITLE2=It Takes A Lot To Laugh, It Takes A Train To Cry
TTITLE3=Strange Man
TTITLE4=Lonesome Highway
TTITLE5=Ride Out
TTITLE6=Built For Comfort
TTITLE7=House Of Wax
TTITLE8=Ready For Love
TTITLE9=Maybelline
TTITLE10=Solid Rock
TTITLE11=Golden Road
TTITLE12=Knockin' On Heaven's Door
TTITLE13=Scarlet Begonias
EXTD=ARD Relix records CCRCD 111
EXTT0=
EXTT1=
EXTT2=
EXTT3=
EXTT4=
EXTT5=
EXTT6=
EXTT7=
EXTT8=
EXTT9=
EXTT10=
EXTT11=
EXTT12=
EXTT13=
PLAYORDER=
